<svg xmlns="http://www.w3.org/2000/svg" style="display: none;"><symbol id="icon-facebook" viewBox="0 0 486.392 486.392">
    <path d="M395.193 0H91.198C40.826 0 0 40.826 0 91.198v303.995c0 50.372 40.826 91.198 91.198 91.198h303.995c50.372 0 91.198-40.827 91.198-91.198V91.198C486.392 40.826 445.565 0 395.193 0zm-89.131 243.165l-39.854.03-.03 145.917h-54.689V243.196H175.01v-50.281l36.479-.03-.061-29.609c0-41.039 11.126-65.997 59.431-65.997h40.249v50.311h-25.171c-18.817 0-19.729 7.022-19.729 20.124l-.061 25.171h45.234l-5.319 50.28z"/>
</symbol><symbol id="icon-linkedin" viewBox="0 0 510 510">
    <path d="M459 0H51C22.95 0 0 22.95 0 51v408c0 28.05 22.95 51 51 51h408c28.05 0 51-22.95 51-51V51c0-28.05-22.95-51-51-51zM153 433.5H76.5V204H153v229.5zm-38.25-272.85c-25.5 0-45.9-20.4-45.9-45.9s20.4-45.9 45.9-45.9 45.9 20.4 45.9 45.9-20.4 45.9-45.9 45.9zM433.5 433.5H357V298.35c0-20.399-17.85-38.25-38.25-38.25s-38.25 17.851-38.25 38.25V433.5H204V204h76.5v30.6c12.75-20.4 40.8-35.7 63.75-35.7 48.45 0 89.25 40.8 89.25 89.25V433.5z"/>
</symbol><symbol id="icon-move" viewBox="0 0 46.02 46.02">
    <path d="M14.757 46.02a5.688 5.688 0 0 1-3.929-1.569 5.705 5.705 0 0 1-.204-8.063L23.382 22.97 10.637 9.645a5.703 5.703 0 0 1 8.242-7.884l16.505 17.253a5.707 5.707 0 0 1 .013 7.872L18.893 44.247a5.699 5.699 0 0 1-4.136 1.773z"/>
</symbol><symbol id="icon-twitter" viewBox="0 0 486.392 486.392">
    <path d="M395.193 0H91.198C40.826 0 0 40.826 0 91.198v303.995c0 50.372 40.826 91.198 91.198 91.198h303.995c50.372 0 91.198-40.827 91.198-91.198V91.198C486.392 40.826 445.565 0 395.193 0zm-31.007 188.598l.182 7.752c0 79.16-60.221 170.359-170.359 170.359-33.804 0-65.268-9.91-91.776-26.904 4.682.547 9.454.851 14.288.851 28.059 0 53.868-9.576 74.357-25.627-26.204-.486-48.305-17.814-55.935-41.586a62.478 62.478 0 0 0 11.278 1.034c5.472 0 10.761-.699 15.777-2.067-27.39-5.533-48.031-29.7-48.031-58.701v-.76c8.086 4.499 17.297 7.174 27.116 7.509-16.051-10.731-26.63-29.062-26.63-49.825 0-10.974 2.949-21.249 8.086-30.095 29.518 36.236 73.658 60.069 123.422 62.562-1.034-4.378-1.55-8.968-1.55-13.649 0-33.044 26.812-59.857 59.887-59.857 17.206 0 32.771 7.265 43.714 18.908a121.25 121.25 0 0 0 38.03-14.531c-4.469 13.984-13.953 25.718-26.326 33.135a120.032 120.032 0 0 0 34.382-9.424c-8.025 11.977-18.209 22.526-29.912 30.916z"/>
</symbol><symbol id="icon-vkontakte" viewBox="0 0 96 96">
    <path d="M53.174 52.908c-1.539-.896-3.678-.896-5.416-.896h-5.707v11.76h5.238c1.939 0 4.412.139 6.084-1.035 1.535-1.033 2.404-3.061 2.404-4.992 0-1.794-1.068-3.94-2.603-4.837zm-2.153-10.043c1.27-.967 1.936-2.691 1.936-4.279 0-1.725-.801-3.381-2.27-4.277-1.537-.896-4.346-.689-6.15-.689h-2.486v10.35h3.289c1.871-.001 4.078.137 5.681-1.105zM79.125 0H16.873C7.555 0 0 7.555 0 16.875v62.25C0 88.443 7.555 96 16.873 96h62.252C88.443 96 96 88.443 96 79.125v-62.25C96 7.555 88.443 0 79.125 0zM50.604 72.535H30.992V25.201H52.42c6.207 0 11.934 3.951 11.934 10.92 0 5.381-3.004 9.066-6.836 10.211v.139c5.682 1.174 9.74 4.26 9.74 11.705 0 6.89-4.692 14.359-16.654 14.359z"/>
</symbol></svg>